<svg width="21" height="24" viewBox="0 0 21 24" fill="none" xmlns="http://www.w3.org/2000/svg">
<path d="M20.3938 9.74058L20.3923 7.90734L20.3938 5.5687C20.3938 5.53772 20.3926 5.50697 20.3903 5.4765L20.39 5.09742C20.39 2.28666 18.1033 0 15.2925 0H8.23444C3.69398 0 0 3.69389 0 8.23425C0 9.53137 0.309609 10.8236 0.895453 11.9719L5.93437 22.0484C6.53648 23.2522 7.74642 24 9.09192 24C11.0379 24 12.621 22.4168 12.621 20.4709C12.621 19.9241 12.4921 19.378 12.2474 18.8898L11.0289 16.4687H15.2925C18.1033 16.4687 20.39 14.182 20.39 11.372L20.3909 9.90609C20.3939 9.87197 20.3954 9.83761 20.3954 9.80283C20.3954 9.78192 20.3948 9.7612 20.3938 9.74058Z" fill="#E9A440"/>
<path d="M20.3938 9.74058L20.3923 7.90734L20.3938 5.5687C20.3938 5.53772 20.3926 5.50697 20.3903 5.4765L20.39 5.09742C20.39 2.28666 18.1033 0 15.2925 0H8.23444C3.69398 0 0 3.69389 0 8.23425C0 9.53137 0.309609 10.8236 0.895453 11.9719L5.93437 22.0484C6.53648 23.2522 7.74642 24 9.09192 24C11.0379 24 12.621 22.4168 12.621 20.4709C12.621 19.9241 12.4921 19.378 12.2474 18.8898L11.0289 16.4687H15.2925C18.1033 16.4687 20.39 14.182 20.39 11.372L20.3909 9.90609C20.3939 9.87197 20.3954 9.83761 20.3954 9.80283C20.3954 9.78192 20.3948 9.7612 20.3938 9.74058ZM18.0411 9.71573C18.0393 9.74231 18.0383 9.76908 18.0383 9.79598L18.0373 11.3713C18.0373 12.1044 17.7518 12.7937 17.2333 13.3121C16.7149 13.8305 16.0256 14.1161 15.2925 14.116H10.1969H9.11991C8.71163 14.116 8.33264 14.3277 8.11837 14.6752C7.9043 15.0228 7.88555 15.4565 8.06911 15.8211L10.1449 19.9458C10.1647 19.9853 10.1819 20.0255 10.1969 20.0665V20.0666C10.2001 20.0754 10.2023 20.0845 10.2054 20.0936C10.2154 20.1232 10.2245 20.1529 10.2321 20.1832C10.2357 20.1975 10.2387 20.2118 10.2417 20.2262C10.2474 20.2534 10.2522 20.2808 10.256 20.3086C10.2578 20.3217 10.2598 20.3348 10.2611 20.348C10.2653 20.3886 10.2681 20.4295 10.2681 20.471C10.2681 20.5082 10.266 20.5448 10.2625 20.581C10.2606 20.6027 10.257 20.6239 10.2538 20.6452C10.2518 20.6579 10.2503 20.6707 10.248 20.6833C10.2428 20.7116 10.2362 20.7394 10.229 20.767C10.2279 20.771 10.227 20.775 10.2258 20.7791C10.2174 20.81 10.2078 20.8404 10.1969 20.8703C10.1564 20.9821 10.0996 21.0858 10.0291 21.1789C10.0276 21.1808 10.0262 21.1829 10.0246 21.1848C10.0082 21.2062 9.99108 21.2271 9.97327 21.2474C9.97013 21.2509 9.96689 21.2542 9.9638 21.2578C9.91251 21.3146 9.85589 21.3663 9.79458 21.4122C9.78548 21.4191 9.77653 21.4261 9.76711 21.4327C9.7515 21.4438 9.73542 21.454 9.7192 21.4643C9.70603 21.4727 9.69263 21.4809 9.67903 21.4889C9.66403 21.4975 9.64917 21.506 9.6338 21.514C9.61594 21.5234 9.59766 21.5318 9.57923 21.5403C9.567 21.5459 9.555 21.552 9.54262 21.5572C9.51211 21.5699 9.48108 21.5813 9.4493 21.5915C9.43856 21.5948 9.42759 21.5976 9.41667 21.6007C9.39328 21.6075 9.3697 21.6136 9.3458 21.6189C9.33347 21.6217 9.32109 21.624 9.30853 21.6264C9.2842 21.6311 9.25973 21.6347 9.23498 21.6377C9.22359 21.6391 9.21239 21.6408 9.20095 21.6419C9.16495 21.6452 9.12862 21.6474 9.09178 21.6474C8.64295 21.6474 8.23941 21.3978 8.03841 20.9961L2.99747 10.915C2.99597 10.9119 2.99442 10.9089 2.99283 10.9059C2.56809 10.0747 2.35275 9.17578 2.35275 8.23425C2.35275 4.99116 4.9913 2.3527 8.23448 2.3527H10.197H15.2925C16.806 2.3527 18.0374 3.58392 18.0374 5.09845L18.0377 5.57747C18.0377 5.60728 18.0389 5.63681 18.0411 5.66611L18.0396 7.90758L18.0411 9.71573Z" fill="#E9A440"/>
</svg>
