<svg width="19" height="19" viewBox="0 0 19 19" fill="none" xmlns="http://www.w3.org/2000/svg">
<g clip-path="url(#clip0_1_4082)">
<path d="M16.2249 1.97465C15.4557 1.55085 14.5733 1.30713 13.632 1.30713C11.9711 1.30713 10.4837 2.06398 9.50162 3.25078C8.51485 2.06398 7.02887 1.30713 5.36573 1.30713C4.42665 1.30713 3.54594 1.55085 2.77495 1.97465C1.12077 2.89075 0 4.65207 0 6.67621C0 7.25569 0.0942966 7.81143 0.265088 8.33136C1.18615 12.4716 9.50162 17.6932 9.50162 17.6932C9.50162 17.6932 17.8116 12.4717 18.7339 8.33136C18.9047 7.81143 19 7.25493 19 6.67621C19 4.65282 17.8792 2.89204 16.2249 1.97465Z" fill="#B41F1F"/>
</g>
<defs>
<clipPath id="clip0_1_4082">
<rect width="19" height="19" fill="white"/>
</clipPath>
</defs>
</svg>
