<svg width="52" height="56" viewBox="0 0 52 56" fill="none" xmlns="http://www.w3.org/2000/svg" xmlns:xlink="http://www.w3.org/1999/xlink">
<path d="M47.642,15.096L47.642,41.296L50.642,41.296L50.642,15.096L47.642,15.096ZM47.642,41.296C47.642,44.994 46.717,47.847 44.933,49.768C43.167,51.67 40.344,52.89 36.046,52.89L36.046,55.89C40.916,55.89 44.641,54.491 47.131,51.81C49.602,49.148 50.642,45.454 50.642,41.296L47.642,41.296ZM36.046,52.89L15.094,52.89L15.094,55.89L36.046,55.89L36.046,52.89ZM15.094,52.89C10.797,52.89 7.974,51.67 6.209,49.768C4.425,47.847 3.5,44.994 3.5,41.296L0.5,41.296C0.5,45.454 1.539,49.148 4.01,51.81C6.5,54.491 10.225,55.89 15.094,55.89L15.094,52.89ZM3.5,41.296L3.5,15.096L0.5,15.096L0.5,41.296L3.5,41.296ZM3.5,15.096C3.5,11.397 4.425,8.544 6.209,6.622C7.974,4.72 10.797,3.5 15.094,3.5L15.094,0.5C10.225,0.5 6.5,1.899 4.01,4.581C1.539,7.242 0.5,10.937 0.5,15.096L3.5,15.096ZM15.094,3.5L36.046,3.5L36.046,0.5L15.094,0.5L15.094,3.5ZM36.046,3.5C40.344,3.5 43.167,4.72 44.933,6.622C46.717,8.544 47.642,11.397 47.642,15.096L50.642,15.096C50.642,10.937 49.602,7.242 47.131,4.581C44.641,1.899 40.916,0.5 36.046,0.5L36.046,3.5Z" fill="#292D32"/>
<line x1="15.094" y1="26.69" x2="36.046" y2="26.69" stroke="#292D32" stroke-width="1.5" stroke-miterlimit="10" stroke-linecap="round" stroke-linejoin="round"/>
<line x1="15.094" y1="37.166" x2="36.046" y2="37.166" stroke="#292D32" stroke-width="1.5" stroke-miterlimit="10" stroke-linecap="round" stroke-linejoin="round"/>
<line x1="15.094" y1="16.214" x2="36.046" y2="16.214" stroke="#292D32" stroke-width="1.5" stroke-miterlimit="10" stroke-linecap="round" stroke-linejoin="round"/>
</svg>
