<svg width="32" height="32" viewBox="0 0 32 32" fill="none" xmlns="http://www.w3.org/2000/svg" xmlns:xlink="http://www.w3.org/1999/xlink">
<path d="M27.56,15.28C27.56,22.062 22.062,27.56 15.28,27.56L15.28,30.56C23.719,30.56 30.56,23.719 30.56,15.28L27.56,15.28ZM15.28,27.56C8.498,27.56 3,22.062 3,15.28L0,15.28C0,23.719 6.841,30.56 15.28,30.56L15.28,27.56ZM3,15.28C3,8.498 8.498,3 15.28,3L15.28,0C6.841,0 0,6.841 0,15.28L3,15.28ZM15.28,3C22.062,3 27.56,8.498 27.56,15.28L30.56,15.28C30.56,6.841 23.719,0 15.28,0L15.28,3Z" fill="#FFFFFF"/>
<path d="M14.784,15.552L14.522,15.44L10.688,10.222C10.743,10.021 10.851,9.837 11,9.69C11.077,9.618 11.169,9.561 11.268,9.524C11.368,9.487 11.474,9.47 11.58,9.474C11.764,9.469 11.944,9.533 12.084,9.652C12.247,9.8 12.391,9.966 12.514,10.148L15.582,14.548L16.012,14.922L19.934,20.358C19.891,20.558 19.79,20.74 19.644,20.882C19.496,21.005 19.312,21.077 19.12,21.087C18.928,21.097 18.738,21.045 18.578,20.938C18.413,20.8 18.271,20.636 18.158,20.452L14.784,15.552ZM16.056,15.328L15.644,15.702L11.81,21.05C11.751,21.064 11.692,21.073 11.632,21.078C11.564,21.078 11.497,21.078 11.432,21.078C11.216,21.089 11.003,21.023 10.832,20.89C10.762,20.832 10.705,20.759 10.667,20.676C10.63,20.592 10.611,20.502 10.614,20.41C10.614,20.251 10.655,20.095 10.734,19.956C10.827,19.796 10.931,19.643 11.046,19.498L14.534,14.916L15.038,14.448L18.6,9.53C18.663,9.518 18.725,9.509 18.788,9.502C18.851,9.496 18.917,9.496 18.988,9.502C19.202,9.486 19.413,9.553 19.578,9.69C19.642,9.75 19.693,9.822 19.728,9.903C19.762,9.984 19.779,10.071 19.778,10.158C19.776,10.298 19.741,10.435 19.676,10.558C19.604,10.702 19.519,10.84 19.424,10.97C18.891,11.697 18.342,12.424 17.778,13.152C17.214,13.88 16.64,14.606 16.056,15.328Z" fill="#FFFFFF" stroke="#FFFFFF" stroke-width="0.5" stroke-miterlimit="3.999327"/>
</svg>
