<svg width="54" height="54" viewBox="0 0 54 54" fill="none" xmlns="http://www.w3.org/2000/svg" xmlns:xlink="http://www.w3.org/1999/xlink">
<path d="M41.347,27C41.347,34.801 35.023,41.125 27.222,41.125L27.222,44.125C36.68,44.125 44.347,36.458 44.347,27L41.347,27ZM13.097,27C13.097,19.199 19.421,12.875 27.222,12.875L27.222,9.875C17.764,9.875 10.097,17.542 10.097,27L13.097,27ZM50.5,27C50.5,39.979 39.979,50.5 27,50.5L27,53.5C41.636,53.5 53.5,41.636 53.5,27L50.5,27ZM27,50.5C14.021,50.5 3.5,39.979 3.5,27L0.5,27C0.5,41.636 12.364,53.5 27,53.5L27,50.5ZM3.5,27C3.5,14.021 14.021,3.5 27,3.5L27,0.5C12.364,0.5 0.5,12.364 0.5,27L3.5,27ZM27,3.5C39.979,3.5 50.5,14.021 50.5,27L53.5,27C53.5,12.364 41.636,0.5 27,0.5L27,3.5Z" fill="#121923"/>
</svg>
