<svg width="42" height="48" viewBox="0 0 42 48" fill="none" xmlns="http://www.w3.org/2000/svg" xmlns:xlink="http://www.w3.org/1999/xlink">
<path d="M40.788,19.481L40.785,15.815L40.788,11.137C40.788,11.075 40.785,11.014 40.781,10.953L40.78,10.195C40.78,4.573 36.207,0 30.585,0L16.469,0C7.388,0 0,7.388 0,16.469C0,19.063 0.619,21.647 1.791,23.944L11.869,44.097C13.073,46.504 15.493,48 18.184,48C22.076,48 25.242,44.834 25.242,40.942C25.242,39.848 24.984,38.756 24.495,37.78L22.058,32.937L30.585,32.937C36.207,32.937 40.78,28.364 40.78,22.744L40.782,19.812C40.788,19.744 40.791,19.675 40.791,19.606C40.791,19.564 40.79,19.522 40.788,19.481Z" fill="#E9A440"/>
<path d="M40.788,19.481L40.785,15.815L40.788,11.137C40.788,11.075 40.785,11.014 40.781,10.953L40.78,10.195C40.78,4.573 36.207,0 30.585,0L16.469,0C7.388,0 0,7.388 0,16.469C0,19.063 0.619,21.647 1.791,23.944L11.869,44.097C13.073,46.504 15.493,48 18.184,48C22.076,48 25.242,44.834 25.242,40.942C25.242,39.848 24.984,38.756 24.495,37.78L22.058,32.937L30.585,32.937C36.207,32.937 40.78,28.364 40.78,22.744L40.782,19.812C40.788,19.744 40.791,19.675 40.791,19.606C40.791,19.564 40.79,19.522 40.788,19.481ZM36.082,19.431C36.079,19.485 36.077,19.538 36.077,19.592L36.075,22.743C36.075,24.209 35.504,25.587 34.467,26.624C33.43,27.661 32.051,28.232 30.585,28.232L20.394,28.232L18.24,28.232C17.423,28.232 16.665,28.655 16.237,29.35C15.809,30.046 15.771,30.913 16.138,31.642L20.29,39.892C20.329,39.971 20.364,40.051 20.394,40.133L20.394,40.133C20.4,40.151 20.405,40.169 20.411,40.187C20.431,40.246 20.449,40.306 20.464,40.366C20.471,40.395 20.477,40.424 20.483,40.452C20.495,40.507 20.504,40.562 20.512,40.617C20.516,40.643 20.52,40.67 20.522,40.696C20.531,40.777 20.536,40.859 20.536,40.942C20.536,41.016 20.532,41.09 20.525,41.162C20.521,41.205 20.514,41.248 20.508,41.29C20.504,41.316 20.501,41.341 20.496,41.367C20.486,41.423 20.472,41.479 20.458,41.534C20.456,41.542 20.454,41.55 20.452,41.558C20.435,41.62 20.416,41.681 20.394,41.741C20.313,41.964 20.199,42.172 20.058,42.358C20.055,42.362 20.052,42.366 20.049,42.37C20.016,42.412 19.982,42.454 19.947,42.495C19.94,42.502 19.934,42.508 19.928,42.516C19.825,42.629 19.712,42.733 19.589,42.824C19.571,42.838 19.553,42.852 19.534,42.865C19.503,42.888 19.471,42.908 19.438,42.929C19.412,42.945 19.385,42.962 19.358,42.978C19.328,42.995 19.298,43.012 19.268,43.028C19.232,43.047 19.195,43.064 19.158,43.081C19.134,43.092 19.11,43.104 19.085,43.114C19.024,43.14 18.962,43.163 18.899,43.183C18.877,43.19 18.855,43.195 18.833,43.201C18.787,43.215 18.739,43.227 18.692,43.238C18.667,43.243 18.642,43.248 18.617,43.253C18.568,43.262 18.519,43.269 18.47,43.275C18.447,43.278 18.425,43.282 18.402,43.284C18.33,43.29 18.257,43.295 18.184,43.295C17.286,43.295 16.479,42.796 16.077,41.992L5.995,21.83C5.992,21.824 5.989,21.818 5.986,21.812C5.136,20.149 4.706,18.352 4.706,16.469C4.706,9.982 9.983,4.705 16.469,4.705L20.394,4.705L30.585,4.705C33.612,4.705 36.075,7.168 36.075,10.197L36.075,11.155C36.075,11.215 36.078,11.274 36.082,11.332L36.079,15.815L36.082,19.431Z" fill="#E9A440"/>
<path d="M5.995,21.828L16.077,41.99C16.479,42.793 17.286,43.293 18.184,43.293C18.258,43.293 18.33,43.288 18.402,43.282C18.425,43.279 18.448,43.276 18.47,43.273C18.52,43.267 18.569,43.26 18.617,43.251C18.642,43.246 18.667,43.241 18.692,43.236C18.74,43.225 18.787,43.213 18.834,43.199C18.856,43.193 18.877,43.188 18.899,43.181C18.962,43.16 19.025,43.138 19.085,43.112C19.11,43.102 19.134,43.09 19.159,43.078C19.195,43.062 19.232,43.044 19.268,43.026C19.298,43.01 19.328,42.993 19.358,42.976C19.385,42.96 19.412,42.943 19.439,42.926C19.471,42.906 19.503,42.885 19.534,42.863C19.553,42.85 19.571,42.836 19.589,42.822C19.712,42.73 19.826,42.627 19.928,42.514C19.934,42.506 19.94,42.5 19.947,42.493C19.982,42.452 20.017,42.41 20.049,42.367C20.053,42.364 20.055,42.359 20.058,42.356C20.199,42.169 20.313,41.962 20.394,41.739L20.394,40.131C20.364,40.049 20.329,39.968 20.29,39.889L16.138,31.64C15.771,30.911 15.809,30.043 16.237,29.348C16.665,28.653 17.423,28.23 18.24,28.23L20.394,28.23L20.394,4.703L16.469,4.703C9.983,4.703 4.706,9.98 4.706,16.466C4.706,18.349 5.136,20.147 5.986,21.809C5.989,21.816 5.992,21.822 5.995,21.828Z" fill="#ECB45C"/>
<path d="M30.585,28.23C32.051,28.23 33.43,27.659 34.467,26.622C35.503,25.585 36.075,24.207 36.075,22.74L36.077,19.59C36.077,19.536 36.079,19.482 36.082,19.429L36.079,15.813L36.082,11.33C36.078,11.271 36.075,11.212 36.075,11.153L36.075,10.195C36.075,7.166 33.612,4.703 30.585,4.703L20.394,4.703L20.394,28.23L30.585,28.23Z" fill="#EFC27B"/>
</svg>
