<svg width="32" height="32" viewBox="0 0 32 32" fill="none" xmlns="http://www.w3.org/2000/svg" xmlns:xlink="http://www.w3.org/1999/xlink">
<path d="M6.674,18.199L5.626,22.113L1.8,22.199C0.641,20.04 0.026,17.632 0.007,15.182C-0.013,12.733 0.565,10.315 1.69,8.139L5.1,8.765L6.594,12.165C5.922,14.13 5.951,16.268 6.678,18.215L6.674,18.199Z" fill="#FBBB00"/>
<path d="M29.85,12.244C30.361,14.929 30.131,17.702 29.185,20.266C28.24,22.83 26.614,25.088 24.482,26.798L20.186,26.578L19.586,22.778C21.36,21.739 22.724,20.121 23.448,18.196L15.396,18.196L15.396,12.24L29.86,12.24L29.85,12.244Z" fill="#518EF8"/>
<path d="M24.482,26.798C22.759,28.182 20.753,29.169 18.606,29.69C16.46,30.212 14.224,30.254 12.059,29.815C9.894,29.376 7.852,28.467 6.077,27.15C4.303,25.834 2.84,24.143 1.792,22.198L6.672,18.198C7.131,19.419 7.85,20.525 8.781,21.439C9.711,22.352 10.83,23.052 12.059,23.488C13.288,23.925 14.597,24.087 15.896,23.965C17.194,23.843 18.45,23.438 19.576,22.78L24.482,26.798Z" fill="#28B446"/>
<path d="M24.668,3.466L19.79,7.466C18.647,6.755 17.359,6.31 16.021,6.165C14.682,6.02 13.329,6.179 12.06,6.629C10.792,7.08 9.641,7.811 8.694,8.767C7.747,9.724 7.028,10.881 6.59,12.154L1.684,8.132C2.719,6.135 4.188,4.395 5.983,3.04C7.779,1.684 9.855,0.749 12.06,0.301C14.264,-0.146 16.541,-0.094 18.723,0.453C20.905,1.001 22.936,2.031 24.668,3.466Z" fill="#F14336"/>
</svg>
