<svg width="50" height="48" viewBox="0 0 50 48" fill="none" xmlns="http://www.w3.org/2000/svg" xmlns:xlink="http://www.w3.org/1999/xlink">
<path d="M17.772,2.968L16.906,1.743C16.887,1.756 16.868,1.77 16.85,1.785L17.772,2.968ZM5.662,12.404L4.74,11.221C4.719,11.237 4.698,11.254 4.678,11.271L5.662,12.404ZM2,19.864L0.502,19.778C0.501,19.807 0.5,19.835 0.5,19.864L2,19.864ZM2,36.514L0.5,36.514L0.5,36.516L2,36.514ZM11.46,45.996L11.455,47.496L11.46,47.496L11.46,45.996ZM37.478,45.996L37.478,47.496L37.482,47.496L37.478,45.996ZM46.938,36.538L48.438,36.543L48.438,36.538L46.938,36.538ZM46.938,20.18L48.438,20.18C48.438,20.152 48.437,20.124 48.436,20.096L46.938,20.18ZM42.894,12.428L43.82,11.248C43.799,11.232 43.777,11.215 43.755,11.2L42.894,12.428ZM29.008,2.698L29.869,1.469C29.851,1.457 29.833,1.444 29.814,1.433L29.008,2.698ZM16.85,1.785L4.74,11.221L6.584,13.587L18.694,4.151L16.85,1.785ZM4.678,11.271C3.45,12.339 2.447,13.642 1.73,15.103L4.423,16.425C4.964,15.323 5.72,14.341 6.646,13.536L4.678,11.271ZM1.73,15.103C1.013,16.564 0.595,18.153 0.502,19.778L3.498,19.95C3.568,18.724 3.882,17.526 4.423,16.425L1.73,15.103ZM0.5,19.864L0.5,36.514L3.5,36.514L3.5,19.864L0.5,19.864ZM0.5,36.516C0.504,39.423 1.658,42.209 3.711,44.267L5.835,42.148C4.342,40.652 3.503,38.626 3.5,36.512L0.5,36.516ZM3.711,44.267C5.764,46.325 8.548,47.486 11.455,47.496L11.465,44.496C9.352,44.489 7.328,43.644 5.835,42.148L3.711,44.267ZM11.46,47.496L37.478,47.496L37.478,44.496L11.46,44.496L11.46,47.496ZM37.482,47.496C40.385,47.488 43.166,46.331 45.219,44.279L43.098,42.157C41.606,43.649 39.584,44.49 37.474,44.496L37.482,47.496ZM45.219,44.279C47.272,42.226 48.429,39.445 48.438,36.543L45.438,36.533C45.431,38.643 44.59,40.665 43.098,42.157L45.219,44.279ZM48.438,36.538L48.438,20.18L45.438,20.18L45.438,36.538L48.438,36.538ZM48.436,20.096C48.339,18.378 47.877,16.7 47.081,15.174L44.421,16.562C45.02,17.71 45.367,18.972 45.44,20.265L48.436,20.096ZM47.081,15.174C46.285,13.649 45.174,12.311 43.82,11.248L41.968,13.608C42.986,14.408 43.823,15.414 44.421,16.562L47.081,15.174ZM43.755,11.2L29.869,1.469L28.147,3.926L42.033,13.657L43.755,11.2ZM29.814,1.433C27.875,0.197 25.611,-0.433 23.313,-0.378L23.385,2.622C25.088,2.581 26.765,3.047 28.202,3.963L29.814,1.433ZM23.313,-0.378C21.014,-0.322 18.784,0.416 16.906,1.743L18.638,4.193C20.029,3.209 21.682,2.663 23.385,2.622L23.313,-0.378Z" fill="#292D32"/>
<line x1="22.968" y1="30.266" x2="22.968" y2="37.008" stroke="#292D32" stroke-width="1.5" stroke-miterlimit="3.999327" stroke-linecap="round" stroke-linejoin="round"/>
</svg>
