<svg width="30" height="30" viewBox="0 0 30 30" fill="none" xmlns="http://www.w3.org/2000/svg" xmlns:xlink="http://www.w3.org/1999/xlink">
<path d="M15,0C19.075,0 19.584,0.015 21.183,0.09C22.781,0.165 23.868,0.415 24.825,0.788C25.815,1.168 26.649,1.684 27.483,2.517C28.246,3.267 28.836,4.174 29.213,5.175C29.583,6.13 29.835,7.219 29.91,8.817C29.981,10.416 30,10.924 30,15C30,19.076 29.985,19.584 29.91,21.183C29.835,22.781 29.583,23.868 29.213,24.825C28.837,25.827 28.247,26.734 27.483,27.483C26.733,28.245 25.826,28.836 24.825,29.213C23.869,29.583 22.781,29.835 21.183,29.91C19.584,29.981 19.075,30 15,30C10.925,30 10.416,29.985 8.817,29.91C7.22,29.835 6.132,29.583 5.175,29.213C4.173,28.837 3.266,28.246 2.517,27.483C1.754,26.733 1.164,25.826 0.787,24.825C0.416,23.869 0.165,22.781 0.09,21.183C0.019,19.584 0,19.076 0,15C0,10.924 0.015,10.416 0.09,8.817C0.165,7.218 0.416,6.132 0.787,5.175C1.163,4.173 1.753,3.266 2.517,2.517C3.267,1.754 4.174,1.164 5.175,0.788C6.132,0.415 7.218,0.165 8.817,0.09C10.416,0.019 10.925,0 15,0ZM15,7.5C13.011,7.5 11.103,8.29 9.697,9.697C8.29,11.103 7.5,13.011 7.5,15C7.5,16.989 8.29,18.897 9.697,20.303C11.103,21.71 13.011,22.5 15,22.5C16.989,22.5 18.897,21.71 20.303,20.303C21.71,18.897 22.5,16.989 22.5,15C22.5,13.011 21.71,11.103 20.303,9.697C18.897,8.29 16.989,7.5 15,7.5ZM24.75,7.125C24.75,6.628 24.552,6.151 24.201,5.799C23.849,5.448 23.372,5.25 22.875,5.25C22.378,5.25 21.901,5.448 21.549,5.799C21.198,6.151 21,6.628 21,7.125C21,7.622 21.198,8.099 21.549,8.451C21.901,8.802 22.378,9 22.875,9C23.372,9 23.849,8.802 24.201,8.451C24.552,8.099 24.75,7.622 24.75,7.125ZM15,10.5C16.193,10.5 17.338,10.974 18.182,11.818C19.026,12.662 19.5,13.807 19.5,15C19.5,16.193 19.026,17.338 18.182,18.182C17.338,19.026 16.193,19.5 15,19.5C13.807,19.5 12.662,19.026 11.818,18.182C10.974,17.338 10.5,16.193 10.5,15C10.5,13.807 10.974,12.662 11.818,11.818C12.662,10.974 13.807,10.5 15,10.5Z" fill="#FFFFFF"/>
</svg>
