<svg width="56" height="48" viewBox="0 0 56 48" fill="none" xmlns="http://www.w3.org/2000/svg" xmlns:xlink="http://www.w3.org/1999/xlink">
<path d="M54.042,33.226L52.542,33.226L52.542,33.226L54.042,33.226ZM41.032,44.736L15.01,44.736L15.01,47.736L41.032,47.736L41.032,44.736ZM15.01,44.736C11.34,44.736 8.508,43.817 6.6,42.046C4.713,40.294 3.5,37.493 3.5,33.226L0.5,33.226C0.5,38.065 1.892,41.769 4.559,44.245C7.207,46.703 10.879,47.736 15.01,47.736L15.01,44.736ZM3.5,33.226L3.5,15.01L0.5,15.01L0.5,33.226L3.5,33.226ZM3.5,15.01C3.5,10.742 4.711,7.94 6.597,6.189C8.503,4.418 11.334,3.5 15.01,3.5L15.01,0.5C10.875,0.5 7.202,1.533 4.555,3.99C1.889,6.467 0.5,10.171 0.5,15.01L3.5,15.01ZM15.01,3.5L41.032,3.5L41.032,0.5L15.01,0.5L15.01,3.5ZM41.032,3.5C44.702,3.5 47.534,4.419 49.442,6.19C51.329,7.942 52.542,10.743 52.542,15.01L55.542,15.01C55.542,10.171 54.15,6.467 51.483,3.991C48.835,1.533 45.163,0.5 41.032,0.5L41.032,3.5ZM52.542,15.01L52.542,33.226L55.542,33.226L55.542,15.01L52.542,15.01ZM52.542,33.226C52.543,37.494 51.332,40.296 49.445,42.047C47.539,43.818 44.706,44.736 41.032,44.736L41.032,47.736C45.166,47.736 48.84,46.703 51.487,44.246C54.153,41.769 55.543,38.066 55.542,33.226L52.542,33.226Z" fill="#292D32"/>
<path d="M41.968,17.484C42.615,16.967 42.721,16.024 42.204,15.376C41.687,14.729 40.743,14.623 40.096,15.141L41.968,17.484ZM32.888,22.818L33.776,24.027C33.793,24.015 33.808,24.003 33.824,23.99L32.888,22.818ZM23.13,22.818L22.192,23.989C22.208,24.002 22.225,24.015 22.242,24.027L23.13,22.818ZM15.948,15.142C15.301,14.624 14.357,14.728 13.839,15.375C13.321,16.021 13.426,16.965 14.072,17.483L15.948,15.142ZM40.096,15.141L31.952,21.647L33.824,23.99L41.968,17.484L40.096,15.141ZM32,21.61C30.843,22.46 29.445,22.919 28.009,22.919L28.009,25.919C30.084,25.919 32.104,25.256 33.776,24.027L32,21.61ZM28.009,22.919C26.573,22.919 25.175,22.46 24.019,21.61L22.242,24.027C23.914,25.256 25.934,25.919 28.009,25.919L28.009,22.919ZM24.068,21.648L15.948,15.142L14.072,17.483L22.192,23.989L24.068,21.648Z" fill="#292D32"/>
</svg>
