<svg width="15" height="15" viewBox="0 0 15 15" fill="none" xmlns="http://www.w3.org/2000/svg">
<path d="M7.18125 11.7251C4.03672 11.7251 1.49375 9.18213 1.49375 6.0376C1.49375 2.92041 4.03672 0.350098 7.18125 0.350098C10.2984 0.350098 12.8688 2.92041 12.8688 6.0376C12.8688 9.18213 10.2984 11.7251 7.18125 11.7251ZM6.55234 3.02979C5.67734 3.05713 4.93906 3.79541 4.93906 4.7251C4.93906 5.49072 5.43125 6.17432 6.14219 6.36572L7.8375 6.88525C8.02891 6.93994 8.16563 7.13135 8.16563 7.37744C8.16563 7.65088 7.97422 7.86963 7.72813 7.86963H6.66172C6.49766 7.86963 6.33359 7.81494 6.16953 7.73291C6.06016 7.65088 5.89609 7.65088 5.78672 7.76025L5.34922 8.17041C5.2125 8.30713 5.23984 8.52588 5.37656 8.63525C5.73203 8.90869 6.14219 9.04541 6.55234 9.07275V9.5376C6.55234 9.78369 6.77109 9.9751 7.01719 9.9751H7.31797C7.56406 9.9751 7.78281 9.78369 7.78281 9.5376V9.07275C8.65781 9.04541 9.39609 8.30713 9.39609 7.37744C9.39609 6.61182 8.90391 5.92822 8.19297 5.73682L6.49766 5.21729C6.30625 5.1626 6.16953 4.94385 6.16953 4.7251C6.16953 4.45166 6.36094 4.23291 6.60703 4.23291H7.67344C7.8375 4.23291 8.00156 4.2876 8.16563 4.36963C8.275 4.45166 8.43906 4.45166 8.54844 4.34229L8.98594 3.93213C9.12266 3.79541 9.09531 3.57666 8.95859 3.43994C8.60313 3.19385 8.19297 3.05713 7.78281 3.02979V2.56494C7.78281 2.31885 7.56406 2.1001 7.31797 2.1001H7.01719C6.77109 2.1001 6.55234 2.31885 6.55234 2.56494V3.02979ZM13.3063 9.9751C13.7711 9.9751 14.1813 10.3853 14.1813 10.8501V13.4751C14.1813 13.9673 13.7711 14.3501 13.3063 14.3501H1.05625C0.564063 14.3501 0.18125 13.9673 0.18125 13.4751V10.8501C0.18125 10.3853 0.564063 9.9751 1.05625 9.9751H1.93125C2.47813 10.686 3.16172 11.2876 3.92734 11.7251H2.17734C2.04063 11.7251 1.93125 11.8345 1.93125 11.9438V12.3813C1.93125 12.5181 2.04063 12.6001 2.17734 12.6001H12.1578C12.2945 12.6001 12.4039 12.5181 12.4039 12.3813V11.9438C12.4039 11.8345 12.2945 11.7251 12.1578 11.7251H10.4078C11.1734 11.2876 11.857 10.686 12.4039 9.9751H13.3063Z" fill="black"/>
</svg>
