<svg width="36" height="38" viewBox="0 0 36 38" fill="none" xmlns="http://www.w3.org/2000/svg" xmlns:xlink="http://www.w3.org/1999/xlink">
<path d="M4.138,31.45L4.842,30.74L4.839,30.737L4.138,31.45ZM6.907,32.585L6.907,33.585L6.907,32.585ZM9.676,31.45L8.973,30.739L8.972,30.74L9.676,31.45ZM33.674,7.763L34.377,8.475L34.39,8.462L33.674,7.763ZM28.137,2.298L27.448,1.573L27.434,1.586L28.137,2.298ZM4.138,25.984L4.839,26.697L4.84,26.696L4.138,25.984ZM3.434,32.161C3.891,32.613 4.433,32.971 5.029,33.215L5.787,31.365C5.432,31.219 5.111,31.007 4.842,30.74L3.434,32.161ZM5.029,33.215C5.624,33.46 6.263,33.585 6.907,33.585L6.907,31.585C6.522,31.585 6.141,31.51 5.787,31.365L5.029,33.215ZM6.907,33.585C7.551,33.585 8.189,33.459 8.785,33.215L8.027,31.365C7.672,31.51 7.292,31.585 6.907,31.585L6.907,33.585ZM8.785,33.215C9.38,32.971 9.923,32.613 10.38,32.161L8.972,30.74C8.703,31.007 8.381,31.219 8.027,31.365L8.785,33.215ZM10.378,32.162L34.377,8.475L32.972,7.052L8.973,30.739L10.378,32.162ZM34.39,8.462C35.285,7.544 35.781,6.315 35.769,5.036L33.769,5.055C33.776,5.802 33.487,6.524 32.958,7.065L34.39,8.462ZM35.769,5.036C35.757,3.758 35.237,2.538 34.325,1.637L32.92,3.061C33.458,3.592 33.762,4.309 33.769,5.055L35.769,5.036ZM34.325,1.637C33.413,0.738 32.183,0.229 30.9,0.217L30.881,2.217C31.649,2.224 32.381,2.528 32.92,3.061L34.325,1.637ZM30.9,0.217C29.616,0.205 28.376,0.69 27.448,1.573L28.826,3.023C29.375,2.5 30.113,2.21 30.881,2.217L30.9,0.217ZM27.434,1.586L3.436,25.273L4.84,26.696L28.839,3.009L27.434,1.586ZM3.437,25.272C2.979,25.722 2.614,26.258 2.365,26.85L4.209,27.626C4.355,27.279 4.569,26.964 4.839,26.697L3.437,25.272ZM2.365,26.85C2.116,27.442 1.989,28.076 1.989,28.717L3.989,28.717C3.989,28.343 4.063,27.972 4.209,27.626L2.365,26.85ZM1.989,28.717C1.989,29.358 2.116,29.993 2.365,30.585L4.209,29.809C4.063,29.463 3.989,29.092 3.989,28.717L1.989,28.717ZM2.365,30.585C2.614,31.176 2.979,31.713 3.437,32.163L4.839,30.737C4.569,30.471 4.355,30.156 4.209,29.809L2.365,30.585Z" fill="#141414"/>
<path d="M3.693,36.002C5.732,36.002 7.385,34.37 7.385,32.358C7.385,30.345 5.732,28.713 3.693,28.713C1.653,28.713 0,30.345 0,32.358C0,34.37 1.653,36.002 3.693,36.002Z" fill="#141414"/>
</svg>
