<svg width="40" height="40" viewBox="0 0 40 40" fill="none" xmlns="http://www.w3.org/2000/svg" xmlns:xlink="http://www.w3.org/1999/xlink">
<path d="M25.032,6.202L26.378,5.541L26.376,5.537L25.032,6.202ZM26.469,9.131L25.122,9.792C25.136,9.819 25.149,9.845 25.164,9.871L26.469,9.131ZM30.574,12.215L30.227,13.674C30.264,13.683 30.301,13.69 30.339,13.696L30.574,12.215ZM32.528,12.525L32.775,11.046L32.764,11.044L32.528,12.525ZM35.557,22.085L36.619,23.145L36.624,23.139L35.557,22.085ZM33.762,23.884L32.7,22.825C32.673,22.851 32.648,22.879 32.624,22.907L33.762,23.884ZM32.269,29.128L30.787,29.359C30.794,29.404 30.803,29.448 30.814,29.492L32.269,29.128ZM32.539,30.208L34.003,29.879C34,29.867 33.997,29.855 33.994,29.844L32.539,30.208ZM24.214,36.326L24.986,35.039L24.967,35.028L24.214,36.326ZM22.884,35.554L23.636,34.257C23.614,34.244 23.591,34.231 23.568,34.219L22.884,35.554ZM17.131,35.554L16.447,34.219C16.426,34.23 16.406,34.241 16.386,34.252L17.131,35.554ZM15.783,36.326L15.038,35.024C15.028,35.03 15.018,35.036 15.008,35.042L15.783,36.326ZM7.46,30.208L6.005,29.844L5.999,29.868L7.46,30.208ZM7.73,29.128L9.185,29.492C9.196,29.448 9.205,29.404 9.212,29.359L7.73,29.128ZM6.239,23.884L7.378,22.909C7.353,22.88 7.327,22.852 7.301,22.825L6.239,23.884ZM4.444,22.085L3.376,23.139L3.382,23.145L4.444,22.085ZM7.471,12.525L7.235,11.044L7.224,11.046L7.471,12.525ZM9.425,12.215L9.66,13.696C9.696,13.69 9.732,13.683 9.768,13.675L9.425,12.215ZM13.533,9.131L14.839,9.869C14.853,9.843 14.867,9.817 14.88,9.791L13.533,9.131ZM14.967,6.202L13.623,5.537L13.62,5.542L14.967,6.202ZM23.685,6.863L25.122,9.792L27.816,8.471L26.378,5.541L23.685,6.863ZM25.164,9.871C25.701,10.818 26.427,11.646 27.299,12.301L29.101,9.902C28.56,9.496 28.109,8.982 27.774,8.392L25.164,9.871ZM27.299,12.301C28.171,12.955 29.168,13.423 30.227,13.674L30.921,10.755C30.261,10.599 29.641,10.308 29.101,9.902L27.299,12.301ZM30.339,13.696L32.293,14.007L32.764,11.044L30.809,10.733L30.339,13.696ZM32.282,14.005C34.94,14.448 36.082,15.556 36.391,16.526C36.701,17.501 36.409,19.088 34.49,21.031L36.624,23.139C38.92,20.815 40.043,18.11 39.249,15.616C38.454,13.117 35.974,11.579 32.775,11.046L32.282,14.005ZM34.495,21.026L32.7,22.825L34.824,24.944L36.619,23.145L34.495,21.026ZM32.624,22.907C31.869,23.786 31.315,24.818 30.998,25.932L33.883,26.753C34.082,26.056 34.428,25.411 34.9,24.862L32.624,22.907ZM30.998,25.932C30.68,27.046 30.609,28.215 30.787,29.359L33.751,28.898C33.64,28.181 33.685,27.45 33.883,26.753L30.998,25.932ZM30.814,29.492L31.084,30.571L33.994,29.844L33.724,28.765L30.814,29.492ZM31.075,30.536C31.844,33.958 31.14,35.564 30.401,36.105C29.67,36.64 27.956,36.822 24.986,35.04L23.443,37.612C26.64,39.531 29.885,40.201 32.173,38.525C34.453,36.856 34.827,33.552 34.003,29.879L31.075,30.536ZM24.967,35.028L23.636,34.257L22.131,36.852L23.462,37.623L24.967,35.028ZM23.568,34.219C22.466,33.655 21.246,33.36 20.008,33.36L20.008,36.36C20.77,36.36 21.521,36.541 22.2,36.889L23.568,34.219ZM20.008,33.36C18.77,33.36 17.549,33.655 16.447,34.219L17.815,36.889C18.493,36.542 19.246,36.36 20.008,36.36L20.008,33.36ZM16.386,34.252L15.038,35.024L16.529,37.628L17.876,36.856L16.386,34.252ZM15.008,35.042C12.013,36.85 10.29,36.662 9.562,36.126C8.825,35.584 8.125,33.97 8.921,30.547L5.999,29.868C5.145,33.54 5.5,36.861 7.783,38.542C10.075,40.23 13.338,39.554 16.559,37.61L15.008,35.042ZM8.915,30.571L9.185,29.492L6.275,28.765L6.005,29.844L8.915,30.571ZM9.212,29.359C9.39,28.215 9.318,27.046 9.002,25.933L6.116,26.753C6.314,27.45 6.359,28.182 6.248,28.898L9.212,29.359ZM9.002,25.933C8.685,24.819 8.131,23.787 7.378,22.909L5.1,24.86C5.571,25.411 5.918,26.057 6.116,26.753L9.002,25.933ZM7.301,22.825L5.505,21.026L3.382,23.145L5.177,24.944L7.301,22.825ZM5.511,21.031C3.591,19.088 3.299,17.5 3.609,16.526C3.917,15.556 5.059,14.448 7.717,14.005L7.224,11.046C4.025,11.579 1.545,13.117 0.75,15.616C-0.043,18.111 1.08,20.815 3.376,23.139L5.511,21.031ZM7.706,14.007L9.66,13.696L9.19,10.733L7.235,11.044L7.706,14.007ZM9.768,13.675C10.83,13.426 11.829,12.959 12.702,12.304L10.902,9.904C10.361,10.31 9.741,10.6 9.082,10.754L9.768,13.675ZM12.702,12.304C13.576,11.648 14.303,10.819 14.839,9.869L12.226,8.394C11.894,8.984 11.443,9.498 10.902,9.904L12.702,12.304ZM14.88,9.791L16.314,6.862L13.62,5.542L12.186,8.472L14.88,9.791ZM16.312,6.867C17.593,4.276 19.018,3.5 19.999,3.5C20.979,3.5 22.405,4.276 23.687,6.868L26.376,5.537C24.885,2.525 22.664,0.5 19.999,0.5C17.333,0.5 15.112,2.525 13.623,5.537L16.312,6.867Z" fill="#000000"/>
</svg>
