<svg width="46" height="44" viewBox="0 0 46 44" fill="none" xmlns="http://www.w3.org/2000/svg" xmlns:xlink="http://www.w3.org/1999/xlink">
<path d="M19.873,38.724C20.702,38.724 21.373,38.052 21.373,37.224C21.373,36.395 20.702,35.724 19.873,35.724L19.873,38.724ZM12.229,37.224L12.229,35.723L12.206,35.724L12.229,37.224ZM8.626,37.029L8.81,35.541L8.789,35.538L8.626,37.029ZM8.626,4.97L8.789,6.462L8.811,6.459L8.626,4.97ZM12.229,4.773L12.207,6.273L12.229,6.273L12.229,4.773ZM19.744,6.273C20.573,6.273 21.244,5.602 21.244,4.773C21.244,3.945 20.573,3.273 19.744,3.273L19.744,6.273ZM19.873,35.724L12.229,35.724L12.229,38.724L19.873,38.724L19.873,35.724ZM12.206,35.724C11.071,35.741 9.936,35.68 8.81,35.541L8.441,38.518C9.705,38.674 10.979,38.743 12.253,38.723L12.206,35.724ZM8.789,35.538C6.131,35.247 4.853,34.524 4.11,33.399C3.278,32.141 2.874,30.049 2.874,26.409L-0.126,26.409C-0.126,30.08 0.241,32.986 1.607,35.053C3.062,37.255 5.41,38.186 8.462,38.52L8.789,35.538ZM2.874,26.409L2.874,15.591L-0.126,15.591L-0.126,26.409L2.874,26.409ZM2.874,15.591C2.874,11.95 3.278,9.859 4.11,8.6C4.853,7.476 6.131,6.753 8.789,6.461L8.462,3.479C5.41,3.814 3.062,4.745 1.607,6.946C0.241,9.014 -0.126,11.92 -0.126,15.591L2.874,15.591ZM8.811,6.459C9.938,6.318 11.072,6.256 12.207,6.273L12.252,3.274C10.978,3.254 9.704,3.324 8.44,3.482L8.811,6.459ZM12.229,6.273L19.744,6.273L19.744,3.273L12.229,3.273L12.229,6.273Z" fill="#292D32"/>
<path d="M28.556,3.273C27.728,3.273 27.056,3.945 27.056,4.773C27.056,5.602 27.728,6.273 28.556,6.273L28.556,3.273ZM31.77,4.773L31.77,6.274L31.793,6.273L31.77,4.773ZM35.375,4.97L35.189,6.459L35.211,6.461L35.375,4.97ZM35.375,37.029L35.211,35.538L35.191,35.541L35.375,37.029ZM31.77,37.224L31.794,35.724L31.77,35.724L31.77,37.224ZM28.556,35.724C27.728,35.724 27.056,36.395 27.056,37.224C27.056,38.052 27.728,38.724 28.556,38.724L28.556,35.724ZM28.556,6.273L31.77,6.273L31.77,3.273L28.556,3.273L28.556,6.273ZM31.793,6.273C32.928,6.256 34.063,6.318 35.189,6.459L35.561,3.482C34.296,3.324 33.022,3.254 31.748,3.274L31.793,6.273ZM35.211,6.461C37.871,6.753 39.149,7.476 39.893,8.6C40.724,9.859 41.128,11.95 41.128,15.591L44.128,15.591C44.128,11.92 43.762,9.014 42.395,6.946C40.94,4.745 38.592,3.814 35.538,3.479L35.211,6.461ZM41.128,15.591L41.128,26.409L44.128,26.409L44.128,15.591L41.128,15.591ZM41.128,26.409C41.128,30.05 40.724,32.141 39.893,33.399C39.149,34.524 37.871,35.247 35.211,35.538L35.538,38.52C38.592,38.186 40.94,37.255 42.395,35.054C43.762,32.986 44.128,30.08 44.128,26.409L41.128,26.409ZM35.191,35.541C34.064,35.68 32.929,35.741 31.794,35.724L31.747,38.723C33.021,38.743 34.295,38.674 35.559,38.518L35.191,35.541ZM31.77,35.724L28.556,35.724L28.556,38.724L31.77,38.724L31.77,35.724Z" fill="#292D32"/>
<line x1="27.012" y1="-0.634" x2="27.012" y2="42.634" stroke="#292D32" stroke-width="1.5" stroke-miterlimit="3.999327" stroke-linecap="round" stroke-linejoin="round"/>
<line x1="20.021" y1="19.499" x2="20.043" y2="19.499" stroke="#292D32" stroke-width="1.5" stroke-miterlimit="3.999327" stroke-linecap="round" stroke-linejoin="round"/>
<line x1="11.335" y1="19.499" x2="11.357" y2="19.499" stroke="#292D32" stroke-width="1.5" stroke-miterlimit="3.999327" stroke-linecap="round" stroke-linejoin="round"/>
</svg>
