<svg width="32" height="26" viewBox="0 0 32 26" fill="none" xmlns="http://www.w3.org/2000/svg" xmlns:xlink="http://www.w3.org/1999/xlink">
<path d="M31.998,3.087C30.8,3.616 29.529,3.964 28.228,4.119C29.599,3.299 30.626,2.009 31.116,0.489C29.829,1.254 28.418,1.791 26.947,2.081C25.959,1.024 24.649,0.324 23.221,0.088C21.794,-0.148 20.328,0.094 19.052,0.776C17.776,1.459 16.762,2.543 16.167,3.861C15.571,5.179 15.428,6.657 15.76,8.064C13.149,7.933 10.595,7.256 8.264,6.074C5.933,4.893 3.876,3.236 2.228,1.209C1.644,2.21 1.337,3.349 1.339,4.508C1.339,6.783 2.498,8.792 4.259,9.969C3.217,9.936 2.197,9.655 1.286,9.148L1.286,9.23C1.286,10.745 1.811,12.213 2.771,13.386C3.73,14.558 5.067,15.363 6.553,15.663C5.585,15.925 4.57,15.964 3.586,15.776C4.005,17.08 4.821,18.221 5.921,19.038C7.021,19.855 8.349,20.308 9.719,20.334C8.357,21.403 6.798,22.193 5.13,22.659C3.462,23.125 1.719,23.258 0,23.051C3.001,24.98 6.495,26.003 10.063,26C22.14,26 28.744,16.002 28.744,7.332C28.744,7.049 28.736,6.764 28.724,6.484C30.009,5.556 31.119,4.406 32,3.088L31.998,3.087Z" fill="#FFFFFF"/>
</svg>
