<svg width="32" height="44" viewBox="0 0 32 44" fill="none" xmlns="http://www.w3.org/2000/svg" xmlns:xlink="http://www.w3.org/1999/xlink">
<path d="M21.21,8.258L21.21,23.031C21.21,25.935 18.856,28.289 15.952,28.289C13.048,28.289 10.694,25.935 10.694,23.031L10.694,8.258C10.694,5.354 13.048,3 15.952,3C18.856,3 21.21,5.354 21.21,8.258ZM7.694,8.258C7.694,3.697 11.391,0 15.952,0C20.512,0 24.21,3.697 24.21,8.258L24.21,23.031C24.21,27.592 20.512,31.289 15.952,31.289C11.391,31.289 7.694,27.592 7.694,23.031L7.694,8.258ZM15.952,35.656C8.721,35.656 3,30.123 3,23.467L0,23.467C0,31.441 6.408,37.871 14.452,38.589L14.452,44L17.452,44L17.452,38.589C25.495,37.871 31.903,31.441 31.903,23.467L28.903,23.467C28.903,30.123 23.182,35.656 15.952,35.656Z" clip-rule="evenodd" fill-rule="evenodd" fill="#000000"/>
</svg>
