<svg width="40" height="40" viewBox="0 0 40 40" fill="none" xmlns="http://www.w3.org/2000/svg" xmlns:xlink="http://www.w3.org/1999/xlink">
<path d="M0,20C0,8.954 8.954,0 20,0L20,0C31.046,0 40,8.954 40,20L40,20C40,31.046 31.046,40 20,40L20,40C8.954,40 0,31.046 0,20L0,20Z" fill="url(#pf_0_1_3918)" stroke="#02A95C" stroke-width="1" stroke-miterlimit="3.999327"/>
<path d="M0,20C0,8.954 8.954,0 20,0C31.046,0 40,8.954 40,20C40,31.046 31.046,40 20,40C8.954,40 0,31.046 0,20Z" fill="url(#pf_0_1_3918)" stroke="#02A95C" stroke-width="1" stroke-miterlimit="3.999327"/>
<defs>
<radialGradient id="pf_0_1_3918" cx="0" cy="0" r="1" gradientUnits="userSpaceOnUse" gradientTransform="matrix(14.142136 0 0 14.142136 10 10)">
<stop offset="0.45" stop-color="#02A95C"/>
<stop offset="0.45" stop-color="#FFFFFF"/>
</radialGradient>
<radialGradient id="pf_0_1_3918" cx="0" cy="0" r="1" gradientUnits="userSpaceOnUse" gradientTransform="matrix(14.142136 0 0 14.142136 10 10)">
<stop offset="0.45" stop-color="#02A95C"/>
<stop offset="0.45" stop-color="#FFFFFF"/>
</radialGradient>
</defs>
</svg>
