<svg width="830" height="832" viewBox="0 0 830 832" fill="none" xmlns="http://www.w3.org/2000/svg" xmlns:xlink="http://www.w3.org/1999/xlink">
<path d="M586.745,224.606L586.196,220.494C589.305,220.098 592.078,218.484 593.998,215.987C595.918,213.489 596.741,210.413 596.344,207.277C595.948,204.17 594.333,201.399 591.834,199.48C589.335,197.561 586.257,196.739 583.148,197.135L582.6,193.024C586.806,192.475 591.011,193.602 594.363,196.191C597.746,198.78 599.91,202.526 600.459,206.759C601.007,210.962 599.88,215.164 597.289,218.515C594.699,221.895 590.95,224.057 586.714,224.606L586.745,224.606Z" fill="#3A8CC7" fill-opacity="0.14"/>
<path d="M193.458,662.518C191.386,662.518 189.283,662.244 187.211,661.635C181.39,659.99 176.545,656.153 173.588,650.854L178.769,647.961C180.963,651.889 184.529,654.691 188.857,655.94C193.154,657.158 197.695,656.64 201.626,654.447C209.702,649.94 212.628,639.707 208.117,631.637L213.298,628.743C219.393,639.677 215.462,653.534 204.521,659.625C201.108,661.543 197.329,662.518 193.489,662.518L193.458,662.518Z" fill="#3A8CC7" fill-opacity="0.14"/>
<path d="M720.075,524.344C710.627,515.786 709.927,501.137 718.49,491.696C727.054,482.255 741.712,481.555 751.16,490.112L747.107,494.589C740.128,488.255 729.309,488.772 722.94,495.747C716.601,502.721 717.119,513.563 724.098,519.897L720.044,524.344L720.075,524.344Z" fill="#3A8CC7" fill-opacity="0.14"/>
<path d="M224.452,34.536C221.465,34.536 218.601,33.47 216.346,31.46C213.907,29.298 212.445,26.283 212.262,23.024C212.079,19.765 213.146,16.628 215.34,14.162C217.504,11.725 220.521,10.263 223.782,10.081L223.964,13.278C221.557,13.431 219.332,14.497 217.717,16.293C216.102,18.09 215.309,20.435 215.462,22.841C215.614,25.247 216.681,27.47 218.479,29.084C220.277,30.699 222.623,31.49 225.031,31.338L225.214,34.536C224.97,34.536 224.726,34.536 224.452,34.536Z" fill="#3A8CC7" fill-opacity="0.14"/>
<path d="M823.265,446.683L820.735,443.212C823.356,441.293 825.063,438.491 825.581,435.293C826.069,432.096 825.307,428.898 823.387,426.279C819.425,420.888 811.837,419.7 806.412,423.629L803.883,420.157C811.197,414.828 821.497,416.442 826.831,423.751C829.421,427.284 830.457,431.639 829.787,435.963C829.116,440.288 826.8,444.095 823.234,446.683L823.265,446.683Z" fill="#3A8CC7" fill-opacity="0.14"/>
<path d="M471.334,531.713L467.829,526.292C476.302,520.841 478.77,509.512 473.315,501.015C467.86,492.518 456.523,490.082 448.02,495.533L444.516,490.112C456.005,482.742 471.334,486.061 478.74,497.543C486.115,509.024 482.793,524.343 471.304,531.744L471.334,531.713Z" fill="#3A8CC7" fill-opacity="0.14"/>
<path d="M10.697,81.498C6.491,81.498 2.377,79.427 0,75.62L2.773,73.884C4.114,75.985 6.156,77.447 8.594,77.995C11.032,78.544 13.531,78.117 15.634,76.808C19.992,74.067 21.302,68.311 18.56,63.956L21.333,62.22C25.051,68.098 23.253,75.894 17.371,79.61C15.299,80.919 12.952,81.528 10.666,81.528L10.697,81.498Z" fill="#3A8CC7" fill-opacity="0.14"/>
<path d="M791.601,152.397C788.858,148.986 787.639,144.692 788.127,140.367C788.614,136.012 790.748,132.114 794.191,129.403C801.262,123.769 811.593,124.926 817.231,131.961L813.878,134.642C809.703,129.434 802.084,128.581 796.843,132.753C794.313,134.763 792.728,137.657 792.363,140.854C791.997,144.052 792.911,147.219 794.953,149.747L791.601,152.427L791.601,152.397Z" fill="#3A8CC7" fill-opacity="0.14"/>
<path d="M344.404,522.303C333.402,513.228 331.848,496.904 340.929,485.94C345.318,480.61 351.535,477.321 358.392,476.651C365.279,476.012 371.984,478.052 377.317,482.438L373.02,487.645C369.089,484.387 364.121,482.864 359.032,483.351C353.942,483.839 349.371,486.275 346.11,490.204C339.406,498.335 340.564,510.395 348.701,517.095L344.404,522.303Z" fill="#3A8CC7" fill-opacity="0.14"/>
<path d="M701.546,28.749C705.233,28.749 708.586,30.79 710.262,34.079C711.45,36.394 711.633,39.043 710.841,41.51C710.018,43.977 708.311,45.987 705.995,47.175C704.624,47.875 703.13,48.241 701.607,48.241C697.919,48.241 694.567,46.2 692.891,42.911C690.453,38.13 692.403,32.252 697.188,29.815C698.559,29.115 700.052,28.749 701.576,28.749M701.546,24.425C699.412,24.425 697.218,24.912 695.207,25.948C688.258,29.45 685.485,37.947 688.99,44.86C691.458,49.763 696.426,52.596 701.576,52.596C703.71,52.596 705.904,52.108 707.946,51.073C714.894,47.571 717.667,39.104 714.163,32.16C711.694,27.257 706.727,24.425 701.576,24.425L701.546,24.425Z" fill="#3A8CC7" fill-opacity="0.14"/>
<path d="M145.734,302.235C146.008,302.235 146.282,302.235 146.557,302.266C148.629,302.479 150.518,303.514 151.829,305.128C153.139,306.743 153.749,308.783 153.536,310.854C153.109,314.844 149.787,317.859 145.764,317.859C145.49,317.859 145.216,317.859 144.941,317.828C140.644,317.371 137.536,313.504 137.963,309.24C138.389,305.25 141.711,302.235 145.734,302.235ZM145.734,298.733C140.004,298.733 135.098,303.058 134.488,308.874C133.848,315.087 138.359,320.661 144.576,321.3C144.972,321.331 145.368,321.361 145.764,321.361C151.494,321.361 156.4,317.036 157.01,311.219C157.65,305.007 153.17,299.433 146.922,298.794C146.526,298.763 146.13,298.733 145.734,298.733Z" fill="#3A8CC7" fill-opacity="0.14"/>
<path d="M764.965,242.909C768.592,242.909 771.822,245.345 772.828,248.817C774.077,253.142 771.578,257.71 767.251,258.959C766.489,259.172 765.727,259.294 764.965,259.294C761.339,259.294 758.108,256.857 757.103,253.386C755.853,249.061 758.352,244.493 762.68,243.244C763.441,243.031 764.203,242.909 764.965,242.909ZM764.965,239.254C763.868,239.254 762.771,239.407 761.643,239.742C755.365,241.569 751.739,248.147 753.567,254.421C755.061,259.598 759.815,262.948 764.935,262.948C766.032,262.948 767.129,262.796 768.257,262.461C774.535,260.634 778.161,254.056 776.333,247.782C774.839,242.604 770.085,239.254 764.965,239.254Z" fill="#3A8CC7" fill-opacity="0.14"/>
<path d="M353.607,20.222C355.344,20.222 357.051,20.587 358.666,21.318C361.653,22.689 363.938,25.095 365.066,28.171C366.224,31.247 366.102,34.566 364.761,37.551C362.78,41.906 358.392,44.738 353.577,44.738C351.84,44.738 350.133,44.373 348.518,43.642C342.362,40.84 339.619,33.561 342.423,27.409C344.404,23.054 348.792,20.222 353.607,20.222ZM353.607,14.771C346.872,14.771 340.411,18.638 337.455,25.156C333.402,34.079 337.333,44.586 346.263,48.637C348.64,49.733 351.139,50.22 353.607,50.22C360.342,50.22 366.803,46.352 369.759,39.835C373.812,30.912 369.881,20.405 360.952,16.354C358.575,15.258 356.076,14.771 353.607,14.771Z" fill="#3A8CC7" fill-opacity="0.14"/>
<path d="M589.091,391.194C589.609,391.194 590.127,391.225 590.645,391.316C595.552,392.169 598.843,396.829 597.99,401.732C597.228,406.056 593.51,409.193 589.122,409.193C588.604,409.193 588.086,409.132 587.567,409.072C582.661,408.219 579.37,403.559 580.223,398.656C580.985,394.331 584.703,391.194 589.091,391.194ZM589.091,387.174C582.874,387.174 577.358,391.651 576.261,397.986C575.042,405.082 579.796,411.812 586.867,413.031C587.628,413.153 588.36,413.213 589.091,413.213C595.308,413.213 600.824,408.737 601.921,402.402C603.14,395.306 598.386,388.575 591.316,387.357C590.554,387.235 589.823,387.174 589.091,387.174Z" fill="#3A8CC7" fill-opacity="0.14"/>
<path d="M137.993,410.381C140.37,410.381 142.656,411.173 144.545,412.635C146.77,414.371 148.202,416.899 148.538,419.7C148.873,422.502 148.111,425.304 146.343,427.527C144.302,430.116 141.254,431.608 137.963,431.608C135.585,431.608 133.3,430.816 131.41,429.355C126.809,425.73 125.986,419.061 129.612,414.462C131.654,411.873 134.702,410.381 137.993,410.381ZM137.993,405.661C133.422,405.661 128.911,407.671 125.894,411.538C120.652,418.208 121.841,427.862 128.515,433.101C131.319,435.293 134.671,436.359 137.993,436.359C142.564,436.359 147.075,434.349 150.092,430.481C155.334,423.812 154.145,414.158 147.471,408.919C144.667,406.727 141.315,405.661 137.993,405.661Z" fill="#3A8CC7" fill-opacity="0.14"/>
<path d="M38.308,770.268C40.654,770.268 42.788,771.334 44.22,773.192C45.408,774.775 45.927,776.724 45.652,778.673C45.378,780.623 44.372,782.358 42.788,783.577C41.477,784.551 39.953,785.099 38.308,785.099C35.961,785.099 33.828,784.033 32.395,782.176C31.207,780.592 30.689,778.643 30.963,776.694C31.237,774.745 32.243,773.009 33.828,771.791C35.138,770.786 36.662,770.268 38.308,770.268ZM38.308,766.948C36.053,766.948 33.767,767.649 31.847,769.141C27.154,772.704 26.209,779.435 29.805,784.125C31.908,786.896 35.108,788.358 38.338,788.358C40.593,788.358 42.879,787.658 44.799,786.165C49.492,782.602 50.407,775.872 46.841,771.181C44.738,768.41 41.538,766.948 38.308,766.948Z" fill="#3A8CC7" fill-opacity="0.14"/>
<path d="M396.578,183.126C402.185,183.126 407.244,186.659 409.194,191.958C411.724,198.902 408.128,206.607 401.179,209.135C399.686,209.683 398.162,209.957 396.578,209.957C390.97,209.957 385.881,206.424 383.961,201.125C382.742,197.744 382.894,194.12 384.418,190.862C385.942,187.633 388.623,185.167 391.976,183.918C393.469,183.37 394.993,183.096 396.578,183.096M396.578,177.126C394.383,177.126 392.128,177.492 389.934,178.314C379.877,181.969 374.696,193.115 378.353,203.165C381.218,211.023 388.654,215.926 396.578,215.926C398.772,215.926 401.027,215.561 403.221,214.738C413.278,211.084 418.459,199.937 414.802,189.887C411.937,182.03 404.501,177.126 396.578,177.126Z" fill="#3A8CC7" fill-opacity="0.14"/>
<path d="M400.783,743.802C401.972,743.802 403.099,744.076 404.166,744.594C405.994,745.508 407.366,747.061 408.036,748.98C408.707,750.898 408.554,752.969 407.671,754.827C406.36,757.477 403.739,759.091 400.814,759.091C399.656,759.091 398.498,758.817 397.431,758.299C393.652,756.441 392.098,751.842 393.957,748.066C395.267,745.447 397.888,743.802 400.814,743.802M400.783,740.391C396.699,740.391 392.768,742.645 390.848,746.574C388.136,752.056 390.391,758.664 395.877,761.375C397.461,762.136 399.107,762.502 400.753,762.502C404.836,762.502 408.768,760.248 410.688,756.319C413.4,750.837 411.145,744.229 405.659,741.518C404.075,740.757 402.429,740.361 400.783,740.361L400.783,740.391Z" fill="#3A8CC7" fill-opacity="0.14"/>
<path d="M297.349,127.606L309.753,141.311L291.346,143.017L278.942,129.312L297.349,127.637M299.208,122.855L269.464,125.596L289.487,147.737L319.231,144.996L299.208,122.855Z" fill="#3A8CC7" fill-opacity="0.14"/>
<path d="M22.643,567.59L35.321,581.02L32.182,599.233L19.504,585.802L22.643,567.59ZM19.718,557.844L14.659,587.264L35.169,608.948L40.228,579.528L19.718,557.844Z" fill="#3A8CC7" fill-opacity="0.14"/>
<path d="M700.906,756.715L725.499,768.897L730.528,795.88L705.934,783.698L700.906,756.715ZM691.794,744.655L699.9,788.236L739.671,807.91L731.564,764.329L691.794,744.655Z" fill="#3A8CC7" fill-opacity="0.14"/>
<path d="M147.745,118.226L161.185,122.947L165.451,136.53L152.012,131.809L147.745,118.226ZM142.29,112.562L149.208,134.52L170.906,142.164L163.989,120.206L142.29,112.562Z" fill="#3A8CC7" fill-opacity="0.14"/>
<path d="M407.031,581.051L408.951,597.283L397.096,608.582L395.176,592.349L407.031,581.051ZM410.078,572.554L390.94,590.796L394.048,617.049L413.187,598.806L410.078,572.554Z" fill="#3A8CC7" fill-opacity="0.14"/>
<path d="M238.105,411.782L251.088,418.969L253.129,433.648L240.147,426.461L238.105,411.782ZM233.473,405.051L236.764,428.776L257.731,440.379L254.44,416.655L233.473,405.051Z" fill="#3A8CC7" fill-opacity="0.14"/>
<path d="M292.016,786.47L285.952,798.895L272.359,801.484L278.424,789.058L292.016,786.47ZM298.05,781.841L276.108,786.043L266.295,806.113L288.237,801.91L298.05,781.841Z" fill="#3A8CC7" fill-opacity="0.14"/>
<path d="M437.567,325.96L422.268,348.953L394.688,350.506L410.017,327.513L437.598,325.96M450.763,318.407L406.177,320.904L381.431,358.029L426.017,355.531L450.763,318.376L450.763,318.407Z" fill="#3A8CC7" fill-opacity="0.14"/>
<path d="M85.545,13.705L103.647,32.495L99.442,58.23L81.339,39.439L85.545,13.705ZM81.278,0L74.513,41.602L103.739,71.965L110.504,30.364L81.278,0Z" fill="#3A8CC7" fill-opacity="0.14"/>
<path d="M32.914,193.511C32.456,193.511 32.03,193.42 31.603,193.206C30.049,192.476 29.378,190.618 30.079,189.065C31.786,185.441 34.773,182.791 38.46,181.634C42.178,180.476 46.109,180.964 49.553,183.004C51.473,184.131 53.637,184.405 55.648,183.796C57.66,183.156 59.275,181.725 60.22,179.685C61.926,176.06 64.913,173.411 68.6,172.254C72.288,171.096 76.25,171.583 79.693,173.624C81.187,174.507 81.674,176.426 80.79,177.888C79.907,179.38 77.987,179.867 76.524,178.984C74.604,177.857 72.44,177.583 70.429,178.192C68.417,178.832 66.802,180.263 65.857,182.304C64.151,185.928 61.195,188.577 57.477,189.704C53.759,190.862 49.827,190.374 46.384,188.334C44.464,187.207 42.3,186.933 40.289,187.542C38.277,188.181 36.662,189.613 35.717,191.653C35.199,192.78 34.072,193.45 32.883,193.45L32.914,193.511Z" fill="#3A8CC7" fill-opacity="0.14"/>
<path d="M646.141,327.33C646.141,327.33 646.08,327.33 646.05,327.33C644.922,327.3 644.039,326.355 644.1,325.229C644.16,323.767 643.642,322.457 642.667,321.483C641.692,320.508 640.351,320.021 638.888,320.112C636.267,320.234 633.86,319.351 632.031,317.584C630.233,315.818 629.288,313.382 629.38,310.793C629.441,309.331 628.923,308.022 627.947,307.047C626.972,306.072 625.631,305.616 624.169,305.677C623.041,305.677 622.096,304.885 622.035,303.758C621.974,302.631 622.828,301.687 623.955,301.596C626.576,301.474 629.014,302.357 630.812,304.123C632.61,305.89 633.555,308.296 633.464,310.915C633.403,312.377 633.921,313.686 634.896,314.661C635.871,315.605 637.212,316.092 638.675,316.031C641.326,315.909 643.734,316.793 645.532,318.559C647.33,320.325 648.275,322.731 648.183,325.35C648.153,326.447 647.239,327.3 646.141,327.3L646.141,327.33Z" fill="#3A8CC7" fill-opacity="0.14"/>
<path d="M602.135,717.459C601.129,717.459 600.306,716.636 600.276,715.631C600.276,714.626 601.068,713.774 602.104,713.774C603.415,713.774 604.603,713.225 605.426,712.312C606.249,711.368 606.615,710.15 606.493,708.84C606.249,706.495 606.95,704.241 608.474,702.505C609.997,700.8 612.131,699.825 614.508,699.795C615.818,699.795 617.007,699.247 617.83,698.333C618.652,697.419 619.018,696.171 618.896,694.861C618.774,693.856 619.506,692.942 620.542,692.821C621.548,692.699 622.462,693.43 622.584,694.465C622.828,696.81 622.127,699.064 620.603,700.8C619.079,702.505 616.946,703.48 614.569,703.51C613.258,703.51 612.07,704.058 611.247,704.972C610.424,705.916 610.058,707.134 610.18,708.444C610.424,710.789 609.723,713.043 608.199,714.779C606.676,716.484 604.542,717.459 602.165,717.489L602.135,717.459Z" fill="#3A8CC7" fill-opacity="0.14"/>
<path d="M125.894,559.763C125.254,559.763 124.614,559.55 124.066,559.123C121.171,556.778 119.433,553.489 119.22,549.896C119.007,546.302 120.317,542.83 122.938,540.18C124.37,538.688 125.102,536.8 125.01,534.851C124.889,532.902 123.944,531.105 122.329,529.795C119.433,527.45 117.696,524.161 117.483,520.567C117.27,516.974 118.58,513.502 121.201,510.852C122.329,509.695 124.157,509.695 125.315,510.822C126.473,511.949 126.473,513.776 125.376,514.933C123.913,516.426 123.182,518.314 123.304,520.263C123.426,522.212 124.37,524.009 125.986,525.318C128.881,527.663 130.618,530.953 130.831,534.546C131.045,538.14 129.734,541.612 127.113,544.292C125.65,545.784 124.919,547.672 125.041,549.621C125.163,551.571 126.108,553.367 127.723,554.677C128.972,555.682 129.155,557.509 128.149,558.758C127.57,559.458 126.748,559.824 125.894,559.824L125.894,559.763Z" fill="#3A8CC7" fill-opacity="0.14"/>
<path d="M157.406,765.517C153.932,765.517 150.671,764.359 147.989,762.197C144.698,759.517 142.747,755.619 142.503,751.264C142.351,748.827 141.315,746.695 139.517,745.234C137.719,743.772 135.403,743.193 132.995,743.559C128.637,744.198 124.431,743.102 121.11,740.422C117.818,737.742 115.868,733.844 115.624,729.488C115.533,727.6 116.965,725.986 118.854,725.895C120.744,725.803 122.359,727.235 122.451,729.123C122.572,731.559 123.639,733.691 125.437,735.153C127.235,736.615 129.551,737.194 131.959,736.828C136.286,736.189 140.522,737.285 143.814,739.965C147.105,742.645 149.086,746.513 149.33,750.898C149.482,753.335 150.518,755.467 152.316,756.928C154.114,758.39 156.431,758.969 158.838,758.603C160.697,758.299 162.434,759.608 162.739,761.466C163.013,763.324 161.733,765.09 159.874,765.364C159.052,765.486 158.229,765.547 157.436,765.547L157.406,765.517Z" fill="#3A8CC7" fill-opacity="0.14"/>
<path d="M15.177,299.22C15.177,299.22 14.933,299.22 14.811,299.22C13.531,299.19 12.525,298.094 12.586,296.845C12.617,295.566 13.683,294.591 14.963,294.591C16.64,294.652 18.133,294.073 19.2,292.947C20.297,291.82 20.815,290.297 20.723,288.652C20.54,285.668 21.546,282.896 23.558,280.856C25.569,278.785 28.312,277.719 31.268,277.81C32.944,277.841 34.437,277.293 35.504,276.166C36.601,275.039 37.119,273.516 37.028,271.872C36.936,270.593 37.912,269.496 39.192,269.405C40.472,269.313 41.569,270.288 41.66,271.567C41.843,274.521 40.837,277.323 38.826,279.364C36.814,281.435 34.072,282.501 31.115,282.409C29.47,282.318 27.977,282.927 26.879,284.054C25.782,285.181 25.264,286.703 25.356,288.348C25.538,291.302 24.533,294.073 22.552,296.144C20.632,298.124 18.041,299.19 15.207,299.19L15.177,299.22Z" fill="#3A8CC7" fill-opacity="0.14"/>
<path d="M296.405,320.935C294.576,320.935 292.808,320.478 291.193,319.595C288.511,318.102 286.622,315.575 285.891,312.499C285.494,310.793 284.458,309.392 282.995,308.57C281.533,307.778 279.826,307.626 278.15,308.205C275.133,309.21 271.994,308.966 269.281,307.474C266.6,305.981 264.71,303.454 263.979,300.378C263.674,299.038 264.497,297.698 265.807,297.393C267.148,297.088 268.489,297.911 268.794,299.22C269.19,300.926 270.226,302.327 271.689,303.149C273.152,303.941 274.858,304.093 276.565,303.514C279.582,302.509 282.721,302.753 285.403,304.245C288.085,305.738 289.974,308.265 290.706,311.341C291.102,313.047 292.138,314.448 293.601,315.27C295.064,316.092 296.801,316.214 298.477,315.636C299.787,315.209 301.189,315.91 301.616,317.189C302.043,318.468 301.372,319.899 300.062,320.326C298.843,320.722 297.624,320.935 296.405,320.935Z" fill="#3A8CC7" fill-opacity="0.14"/>
<path d="M37.15,430.908C36.388,430.908 35.595,430.603 35.016,430.024C32.335,427.283 30.963,423.72 31.176,420.035C31.39,416.35 33.157,412.97 36.113,410.564C37.759,409.224 38.734,407.396 38.856,405.386C38.978,403.376 38.216,401.427 36.723,399.935C34.041,397.194 32.67,393.631 32.883,389.946C33.096,386.23 34.864,382.88 37.82,380.474C39.1,379.439 40.99,379.652 42.026,380.931C43.062,382.21 42.879,384.098 41.569,385.134C39.923,386.474 38.948,388.301 38.826,390.311C38.704,392.321 39.466,394.27 40.959,395.793C43.641,398.534 45.012,402.067 44.799,405.782C44.586,409.498 42.818,412.848 39.862,415.254C38.216,416.594 37.241,418.421 37.119,420.431C36.997,422.441 37.759,424.39 39.252,425.913C40.411,427.101 40.38,428.989 39.222,430.146C38.643,430.725 37.881,430.999 37.119,430.999L37.15,430.908Z" fill="#3A8CC7" fill-opacity="0.14"/>
<path d="M472.553,132.571C471.029,132.571 469.505,132.297 468.012,131.748C466.519,131.2 465.757,129.556 466.305,128.063C466.854,126.571 468.5,125.81 469.993,126.358C471.913,127.058 473.894,126.967 475.6,126.084C477.307,125.201 478.557,123.617 479.075,121.637C480.019,118.074 482.275,115.211 485.444,113.567C488.614,111.922 492.24,111.709 495.714,112.988C497.634,113.689 499.646,113.597 501.352,112.714C503.059,111.831 504.308,110.247 504.827,108.268C505.223,106.745 506.807,105.831 508.331,106.227C509.855,106.623 510.769,108.207 510.373,109.729C509.428,113.293 507.173,116.155 504.004,117.8C500.834,119.445 497.208,119.658 493.764,118.379C491.844,117.678 489.833,117.77 488.126,118.683C486.419,119.566 485.17,121.15 484.652,123.13C483.707,126.693 481.452,129.556 478.282,131.2C476.484,132.144 474.534,132.601 472.553,132.601L472.553,132.571Z" fill="#3A8CC7" fill-opacity="0.14"/>
<path d="M630.142,469.525C629.746,469.525 629.319,469.372 628.984,469.068L617.921,458.926C617.22,458.287 617.19,457.221 617.83,456.52C618.47,455.82 619.536,455.79 620.237,456.429L631.3,466.571C632.001,467.21 632.031,468.276 631.391,468.977C631.056,469.342 630.599,469.525 630.142,469.525Z" fill="#3A8CC7" fill-opacity="0.14"/>
<path d="M268.154,550.352C267.666,550.352 267.179,550.139 266.813,549.743L256.329,537.896C255.689,537.165 255.75,536.038 256.482,535.368C257.213,534.729 258.341,534.79 259.011,535.52L269.495,547.367C270.135,548.098 270.074,549.225 269.342,549.895C269.007,550.2 268.58,550.352 268.154,550.352Z" fill="#3A8CC7" fill-opacity="0.14"/>
<path d="M194.525,220.768C193.55,220.768 192.666,220.098 192.453,219.124C192.178,217.966 192.91,216.839 194.037,216.565L212.384,212.332C213.511,212.058 214.669,212.789 214.944,213.916C215.218,215.073 214.487,216.2 213.359,216.474L195.013,220.707C194.86,220.738 194.677,220.768 194.525,220.768Z" fill="#3A8CC7" fill-opacity="0.14"/>
<path d="M575.712,59.052C574.798,59.052 573.975,58.443 573.762,57.499C573.488,56.403 574.158,55.337 575.255,55.063L592.657,50.89C593.754,50.616 594.821,51.286 595.095,52.383C595.369,53.479 594.699,54.545 593.602,54.819L576.2,58.992C576.048,59.022 575.895,59.052 575.712,59.052Z" fill="#3A8CC7" fill-opacity="0.14"/>
<path d="M806.778,736.524C805.955,736.524 805.193,735.945 804.98,735.092L801.17,719.164C800.926,718.159 801.536,717.154 802.542,716.941C803.517,716.697 804.523,717.307 804.766,718.312L808.576,734.239C808.82,735.245 808.21,736.25 807.204,736.463C807.052,736.493 806.93,736.524 806.778,736.524Z" fill="#3A8CC7" fill-opacity="0.14"/>
<path d="M507.204,754.553C506.503,754.553 505.863,754.157 505.558,753.487L499.128,738.99C498.731,738.077 499.128,737.011 500.042,736.615C500.956,736.219 502.023,736.615 502.419,737.529L508.849,752.025C509.245,752.939 508.849,754.005 507.935,754.401C507.691,754.492 507.447,754.553 507.204,754.553Z" fill="#3A8CC7" fill-opacity="0.14"/>
<path d="M500.133,641.352C498.549,641.352 497.238,640.133 497.147,638.519C497.055,636.875 498.305,635.443 499.981,635.352L526.464,633.799C528.14,633.738 529.542,634.956 529.634,636.631C529.725,638.276 528.476,639.707 526.799,639.798L500.316,641.352C500.316,641.352 500.194,641.352 500.133,641.352Z" fill="#3A8CC7" fill-opacity="0.14"/>
<path d="M326.606,677.441C325.905,677.441 325.295,676.984 325.082,676.284L321.09,662.762C320.846,661.909 321.334,661.026 322.156,660.782C322.979,660.538 323.894,661.026 324.137,661.848L328.13,675.37C328.373,676.223 327.886,677.106 327.063,677.35C326.911,677.38 326.758,677.411 326.606,677.411L326.606,677.441Z" fill="#3A8CC7" fill-opacity="0.14"/>
<path d="M822.442,581.903C822.442,581.903 822.229,581.903 822.137,581.903L799.037,579.132C797.605,578.949 796.568,577.64 796.751,576.208C796.934,574.777 798.244,573.711 799.677,573.924L822.777,576.696C824.21,576.878 825.246,578.188 825.063,579.619C824.911,580.959 823.752,581.934 822.442,581.934L822.442,581.903Z" fill="#3A8CC7" fill-opacity="0.14"/>
<path d="M708.281,401.945L703.435,397.133L727.877,372.586L752.44,397.011L747.625,401.854L727.907,382.241L708.281,401.945Z" fill="#3A8CC7" fill-opacity="0.14"/>
<path d="M602.531,593.812L598.142,591.314L608.352,573.437L590.493,563.235L592.992,558.849L615.27,571.579L602.531,593.812Z" fill="#3A8CC7" fill-opacity="0.14"/>
<path d="M460.21,832L446.923,813.483L450.58,810.864L461.247,825.726L476.119,815.098L478.739,818.752L460.21,832Z" fill="#3A8CC7" fill-opacity="0.14"/>
<path d="M687.344,157.422L662.994,152.823L667.596,128.49L672.381,129.373L668.693,148.925L688.259,152.61L687.344,157.422Z" fill="#3A8CC7" fill-opacity="0.14"/>
<path d="M484.834,30.181L461.064,10.263L464.995,5.573L484.103,21.562L500.103,2.497L504.796,6.395L484.834,30.181Z" fill="#3A8CC7" fill-opacity="0.14"/>
<path d="M504.735,282.562L501.688,265.141L484.225,268.187L483.494,263.893L505.223,260.116L509.002,281.831L504.735,282.562Z" fill="#3A8CC7" fill-opacity="0.14"/>
<path d="M811.258,40.505L792.241,25.43L795.197,21.684L810.496,33.775L822.594,18.517L826.343,21.471L811.258,40.505Z" fill="#3A8CC7" fill-opacity="0.14"/>
<path d="M604.969,819.818L595.704,802.428L578.303,811.717L576.017,807.453L597.685,795.911L609.236,817.564L604.969,819.818Z" fill="#3A8CC7" fill-opacity="0.14"/>
<path d="M712.791,628.987L688.959,605.384L693.592,600.694L712.73,619.637L731.717,600.511L736.41,605.171L712.791,628.987Z" fill="#3A8CC7" fill-opacity="0.14"/>
</svg>
