<svg width="26" height="26" viewBox="0 0 26 26" fill="none" xmlns="http://www.w3.org/2000/svg" xmlns:xlink="http://www.w3.org/1999/xlink">
<path d="M12.302,23.324L12.301,24.824L12.302,24.824L12.302,23.324ZM0.962,11.986L-0.538,11.986L-0.538,11.987L0.962,11.986ZM12.302,24.824C14.841,24.824 17.323,24.07 19.434,22.659L17.767,20.165C16.149,21.246 14.247,21.824 12.301,21.824L12.302,24.824ZM19.434,22.659C21.545,21.248 23.19,19.243 24.161,16.897L21.39,15.749C20.645,17.547 19.385,19.084 17.767,20.165L19.434,22.659ZM24.161,16.897C25.133,14.551 25.387,11.97 24.891,9.48L21.949,10.066C22.329,11.974 22.134,13.952 21.39,15.749L24.161,16.897ZM24.891,9.48C24.396,6.99 23.173,4.703 21.377,2.907L19.256,5.029C20.632,6.405 21.569,8.157 21.949,10.066L24.891,9.48ZM21.377,2.907C19.581,1.112 17.294,-0.11 14.803,-0.606L14.218,2.337C16.127,2.716 17.88,3.653 19.256,5.029L21.377,2.907ZM14.803,-0.606C12.313,-1.101 9.733,-0.846 7.387,0.125L8.535,2.897C10.333,2.152 12.31,1.957 14.218,2.337L14.803,-0.606ZM7.387,0.125C5.041,1.097 3.036,2.742 1.626,4.854L4.12,6.52C5.201,4.902 6.737,3.642 8.535,2.897L7.387,0.125ZM1.626,4.854C0.215,6.965 -0.538,9.447 -0.538,11.986L2.462,11.986C2.462,10.04 3.039,8.138 4.12,6.52L1.626,4.854ZM-0.538,11.987C-0.536,15.391 0.817,18.656 3.225,21.063L5.346,18.941C3.501,17.096 2.463,14.594 2.462,11.985L-0.538,11.987ZM3.225,21.063C5.632,23.47 8.897,24.823 12.301,24.824L12.302,21.824C9.693,21.823 7.191,20.786 5.346,18.941L3.225,21.063Z" fill="#292D32"/>
</svg>
