<svg width="42" height="20" viewBox="0 0 42 20" fill="none" xmlns="http://www.w3.org/2000/svg" xmlns:xlink="http://www.w3.org/1999/xlink">
<path d="M38.278,18C38.278,18.828 38.95,19.5 39.778,19.5C40.607,19.5 41.278,18.828 41.278,18L38.278,18ZM-0.682,18C-0.682,18.828 -0.01,19.5 0.818,19.5C1.647,19.5 2.318,18.828 2.318,18L-0.682,18ZM41.278,18C41.278,8.122 31.574,0.626 20.298,0.626L20.298,3.626C30.522,3.626 38.278,10.326 38.278,18L41.278,18ZM20.298,0.626C9.022,0.626 -0.682,8.122 -0.682,18L2.318,18C2.318,10.326 10.074,3.626 20.298,3.626L20.298,0.626Z" fill="#292D32"/>
</svg>
