<svg width="30" height="12" viewBox="0 0 30 12" fill="none" xmlns="http://www.w3.org/2000/svg" xmlns:xlink="http://www.w3.org/1999/xlink">
<path d="M27.968,3.484C28.615,2.967 28.721,2.023 28.204,1.376C27.687,0.729 26.743,0.623 26.096,1.14L27.968,3.484ZM18.888,8.818L19.776,10.027C19.793,10.015 19.808,10.002 19.824,9.99L18.888,8.818ZM9.13,8.818L8.192,9.989C8.208,10.002 8.225,10.014 8.242,10.027L9.13,8.818ZM1.948,1.141C1.301,0.623 0.357,0.728 -0.161,1.374C-0.679,2.021 -0.574,2.965 0.072,3.483L1.948,1.141ZM26.096,1.14L17.952,7.646L19.824,9.99L27.968,3.484L26.096,1.14ZM18,7.609C16.843,8.46 15.445,8.918 14.009,8.918L14.009,11.918C16.084,11.918 18.104,11.255 19.776,10.027L18,7.609ZM14.009,8.918C12.573,8.918 11.175,8.46 10.019,7.609L8.242,10.027C9.914,11.255 11.934,11.918 14.009,11.918L14.009,8.918ZM10.068,7.647L1.948,1.141L0.072,3.483L8.192,9.989L10.068,7.647Z" fill="#292D32"/>
</svg>
