<svg width="56" height="48" viewBox="0 0 56 48" fill="none" xmlns="http://www.w3.org/2000/svg" xmlns:xlink="http://www.w3.org/1999/xlink">
<path d="M54.042,33.226L52.542,33.226L52.542,33.226L54.042,33.226ZM41.032,44.736L15.01,44.736L15.01,47.736L41.032,47.736L41.032,44.736ZM15.01,44.736C11.34,44.736 8.508,43.817 6.6,42.046C4.713,40.294 3.5,37.493 3.5,33.226L0.5,33.226C0.5,38.065 1.892,41.769 4.559,44.245C7.207,46.703 10.879,47.736 15.01,47.736L15.01,44.736ZM3.5,33.226L3.5,15.01L0.5,15.01L0.5,33.226L3.5,33.226ZM3.5,15.01C3.5,10.742 4.711,7.94 6.597,6.189C8.503,4.418 11.334,3.5 15.01,3.5L15.01,0.5C10.875,0.5 7.202,1.533 4.555,3.99C1.889,6.467 0.5,10.17 0.5,15.01L3.5,15.01ZM15.01,3.5L41.032,3.5L41.032,0.5L15.01,0.5L15.01,3.5ZM41.032,3.5C44.702,3.5 47.534,4.419 49.442,6.19C51.329,7.942 52.542,10.743 52.542,15.01L55.542,15.01C55.542,10.171 54.15,6.467 51.483,3.991C48.835,1.533 45.163,0.5 41.032,0.5L41.032,3.5ZM52.542,15.01L52.542,33.226L55.542,33.226L55.542,15.01L52.542,15.01ZM52.542,33.226C52.543,37.494 51.332,40.296 49.445,42.047C47.539,43.818 44.706,44.736 41.032,44.736L41.032,47.736C45.166,47.736 48.84,46.703 51.487,44.246C54.153,41.769 55.543,38.066 55.542,33.226L52.542,33.226Z" fill="#292D32"/>
</svg>
