<svg width="26" height="24" viewBox="0 0 26 24" fill="none" xmlns="http://www.w3.org/2000/svg" xmlns:xlink="http://www.w3.org/1999/xlink">
<path d="M12.614,23.952C14.943,23.952 17.22,23.262 19.156,21.968C21.093,20.674 22.602,18.834 23.494,16.682C24.385,14.531 24.618,12.163 24.163,9.878C23.709,7.594 22.587,5.496 20.94,3.849C19.293,2.202 17.195,1.081 14.91,0.626C12.626,0.172 10.258,0.406 8.106,1.297C5.954,2.189 4.115,3.699 2.822,5.635C1.528,7.572 0.837,9.849 0.838,12.178C0.842,15.3 2.084,18.293 4.291,20.5C6.499,22.708 9.492,23.949 12.614,23.952ZM12.614,8.152C13.41,8.152 14.188,8.388 14.849,8.83C15.511,9.273 16.027,9.901 16.331,10.636C16.636,11.371 16.716,12.18 16.561,12.961C16.406,13.741 16.023,14.458 15.46,15.021C14.897,15.584 14.181,15.967 13.4,16.123C12.62,16.278 11.811,16.199 11.075,15.895C10.34,15.59 9.711,15.075 9.269,14.413C8.827,13.752 8.59,12.974 8.59,12.178C8.591,11.111 9.015,10.088 9.77,9.333C10.524,8.579 11.547,8.154 12.614,8.152Z" fill="#1F1F1F" stroke="#FFFFFF" stroke-width="2.4" stroke-miterlimit="3.999327"/>
</svg>
