<svg width="38" height="24" viewBox="0 0 38 24" fill="none" xmlns="http://www.w3.org/2000/svg" xmlns:xlink="http://www.w3.org/1999/xlink">
<path d="M32.405,22.935C30.576,22.935 28.808,22.478 27.193,21.595C24.511,20.102 22.622,17.575 21.891,14.499C21.494,12.793 20.458,11.392 18.995,10.57C17.533,9.778 15.826,9.626 14.15,10.205C11.133,11.21 7.994,10.966 5.281,9.474C2.6,7.981 0.71,5.454 -0.021,2.378C-0.326,1.038 0.497,-0.302 1.807,-0.607C3.148,-0.912 4.489,-0.089 4.794,1.22C5.19,2.926 6.226,4.327 7.689,5.149C9.152,5.941 10.858,6.093 12.565,5.514C15.582,4.509 18.721,4.753 21.403,6.245C24.085,7.738 25.974,10.265 26.706,13.341C27.102,15.047 28.138,16.448 29.601,17.27C31.064,18.092 32.801,18.214 34.477,17.636C35.787,17.209 37.189,17.91 37.616,19.189C38.043,20.468 37.372,21.899 36.062,22.326C34.843,22.722 33.624,22.935 32.405,22.935Z" fill="#3A8CC7" fill-opacity="0.14"/>
</svg>
