<svg width="24" height="24" viewBox="0 0 24 24" fill="none" xmlns="http://www.w3.org/2000/svg" xmlns:xlink="http://www.w3.org/1999/xlink">
<path d="M11.734,4.235C12.008,4.235 12.282,4.235 12.557,4.266C14.629,4.479 16.518,5.514 17.829,7.128C19.139,8.743 19.749,10.783 19.536,12.854C19.109,16.844 15.787,19.859 11.764,19.859C11.49,19.859 11.216,19.859 10.941,19.828C6.644,19.371 3.536,15.504 3.963,11.24C4.389,7.25 7.711,4.235 11.734,4.235ZM11.734,0.733C6.004,0.733 1.098,5.058 0.488,10.874C-0.152,17.087 4.359,22.661 10.576,23.3C10.972,23.331 11.368,23.361 11.764,23.361C17.494,23.361 22.4,19.036 23.01,13.219C23.65,7.007 19.17,1.433 12.922,0.794C12.526,0.763 12.13,0.733 11.734,0.733Z" fill="#3A8CC7" fill-opacity="0.14"/>
</svg>
